<svg width="741" height="191" viewBox="0 0 741 191" fill="none" xmlns="http://www.w3.org/2000/svg">
<g clip-path="url(#clip0_19_44)">
<circle cx="96.1516" cy="95.1659" r="95.1659" fill="#1E40AF"/>
<path fill-rule="evenodd" clip-rule="evenodd" d="M108.775 53.2268C119.363 47.8451 131.073 45.0442 142.951 45.0528C144.801 45.0541 146.301 46.5537 146.302 48.4041C146.312 60.282 143.511 71.9937 138.129 82.5824C133.074 92.5291 125.875 101.22 117.063 108.034C117.727 112.076 117.614 116.215 116.722 120.227C115.669 124.966 113.557 129.405 110.545 133.211C107.532 137.018 103.698 140.094 99.3276 142.208C94.9577 144.322 90.1661 145.42 85.3116 145.419C83.4594 145.419 81.9581 143.918 81.9581 142.065V122.09C81.8816 122.039 81.807 121.985 81.7344 121.927C77.1754 118.312 73.0477 114.184 69.4326 109.625C69.3738 109.551 69.3184 109.475 69.2666 109.397H49.2896C47.4374 109.397 45.9359 107.896 45.9355 106.043C45.9347 101.188 47.0326 96.3961 49.1471 92.0257C51.2616 87.6554 54.3378 83.8202 58.1452 80.8077C61.9526 77.7953 66.3924 75.6835 71.132 74.6309C75.1444 73.7397 79.2835 73.6271 83.3258 74.2915C90.1395 65.4799 98.8294 58.2821 108.775 53.2268ZM78.9391 80.5871C76.8117 80.5176 74.6773 80.7149 72.5864 81.1793C68.8351 82.0125 65.321 83.6839 62.3075 86.0683C59.2939 88.4527 56.8591 91.4881 55.1855 94.9473C54.0016 97.3942 53.2203 100.008 52.8647 102.689H69.6545C71.5458 94.8657 74.684 87.4039 78.9391 80.5871ZM75.6457 106.638C78.3816 109.936 81.4183 112.973 84.7166 115.709C94.3511 113.742 103.443 109.718 111.382 103.912L111.387 103.908C120.132 97.5376 127.247 89.1886 132.149 79.5431C136.532 70.9201 139.035 61.4797 139.511 51.8443C129.876 52.3204 120.437 54.8241 111.815 59.2067C102.17 64.109 93.8216 71.2231 87.4515 79.9681L87.4477 79.9734C81.6422 87.9103 77.614 97.0056 75.6457 106.638ZM88.6661 121.701C96.4895 119.811 103.95 116.675 110.767 112.421C110.836 114.548 110.638 116.681 110.174 118.771C109.34 122.522 107.669 126.036 105.284 129.049C102.9 132.062 99.8649 134.496 96.4062 136.17C93.9597 137.353 91.3461 138.134 88.6661 138.49V121.701ZM110.528 76.9765C109.507 76.9765 108.527 77.3822 107.805 78.1043C107.083 78.8264 106.677 79.8058 106.677 80.827C106.677 81.8483 107.083 82.8276 107.805 83.5498C108.527 84.2719 109.507 84.6775 110.528 84.6775C111.549 84.6775 112.528 84.2719 113.251 83.5498C113.973 82.8276 114.378 81.8483 114.378 80.827C114.378 79.8058 113.973 78.8264 113.251 78.1043C112.528 77.3822 111.549 76.9765 110.528 76.9765ZM103.062 73.361C105.042 71.3809 107.728 70.2685 110.528 70.2685C113.328 70.2685 116.014 71.3809 117.994 73.361C119.974 75.3411 121.086 78.0267 121.086 80.827C121.086 83.6273 119.974 86.3129 117.994 88.293C116.014 90.2731 113.328 91.3856 110.528 91.3856C107.728 91.3856 105.042 90.2732 103.062 88.293C101.082 86.3129 99.9693 83.6273 99.9693 80.827C99.9693 78.0268 101.082 75.3412 103.062 73.361ZM64.2815 115.521C65.3868 117.007 65.0779 119.108 63.5914 120.213C60.923 122.198 58.8483 124.874 57.592 127.953C56.662 130.232 56.2067 132.668 56.2433 135.111C58.6872 135.147 61.1227 134.692 63.4019 133.761C66.4808 132.504 69.1572 130.429 71.141 127.759C72.2459 126.273 74.3469 125.963 75.8336 127.068C77.3203 128.173 77.6298 130.274 76.5248 131.761C73.8109 135.412 70.1495 138.252 65.9374 139.971C61.7252 141.691 57.1228 142.226 52.6287 141.517C51.1919 141.29 50.065 140.163 49.8382 138.727C49.1288 134.233 49.6624 129.631 51.3811 125.419C53.0998 121.207 55.9381 117.545 59.5887 114.831C61.0751 113.725 63.1761 114.034 64.2815 115.521Z" fill="white"/>
</g>
<path d="M270.88 70.6147C267.67 70.7647 264.97 71.0497 262.78 71.4697C260.59 71.8597 258.835 72.3697 257.515 72.9997C256.195 73.6297 255.25 74.3647 254.68 75.2047C254.11 76.0447 253.825 76.9597 253.825 77.9497C253.825 79.8997 254.395 81.2947 255.535 82.1347C256.705 82.9747 258.22 83.3947 260.08 83.3947C262.36 83.3947 264.325 82.9897 265.975 82.1797C267.655 81.3397 269.29 80.0797 270.88 78.3997V70.6147ZM245.41 50.5897C250.72 45.7297 257.11 43.2997 264.58 43.2997C267.28 43.2997 269.695 43.7497 271.825 44.6497C273.955 45.5197 275.755 46.7497 277.225 48.3397C278.695 49.8997 279.805 51.7747 280.555 53.9647C281.335 56.1547 281.725 58.5547 281.725 61.1647V90.3247H276.685C275.635 90.3247 274.825 90.1747 274.255 89.8747C273.685 89.5447 273.235 88.8997 272.905 87.9397L271.915 84.6097C270.745 85.6597 269.605 86.5897 268.495 87.3997C267.385 88.1797 266.23 88.8397 265.03 89.3797C263.83 89.9197 262.54 90.3247 261.16 90.5947C259.81 90.8947 258.31 91.0447 256.66 91.0447C254.71 91.0447 252.91 90.7897 251.26 90.2797C249.61 89.7397 248.185 88.9447 246.985 87.8947C245.785 86.8447 244.855 85.5397 244.195 83.9797C243.535 82.4197 243.205 80.6047 243.205 78.5347C243.205 77.3647 243.4 76.2097 243.79 75.0697C244.18 73.8997 244.81 72.7897 245.68 71.7397C246.58 70.6897 247.735 69.6997 249.145 68.7697C250.555 67.8397 252.28 67.0297 254.32 66.3397C256.39 65.6497 258.79 65.0947 261.52 64.6747C264.25 64.2247 267.37 63.9547 270.88 63.8647V61.1647C270.88 58.0747 270.22 55.7947 268.9 54.3247C267.58 52.8247 265.675 52.0747 263.185 52.0747C261.385 52.0747 259.885 52.2847 258.685 52.7047C257.515 53.1247 256.48 53.6047 255.58 54.1447C254.68 54.6547 253.855 55.1197 253.105 55.5397C252.385 55.9597 251.575 56.1697 250.675 56.1697C249.895 56.1697 249.235 55.9747 248.695 55.5847C248.155 55.1647 247.72 54.6847 247.39 54.1447L245.41 50.5897ZM357.679 44.1547L343.009 90.3247H334.099C333.079 90.3247 332.374 89.6647 331.984 88.3447L323.704 61.6597C323.434 60.7597 323.179 59.8747 322.939 59.0047C322.729 58.1047 322.549 57.2047 322.399 56.3047C322.219 57.2047 322.009 58.1197 321.769 59.0497C321.559 59.9497 321.319 60.8497 321.049 61.7497L312.634 88.3447C312.274 89.6647 311.479 90.3247 310.249 90.3247H301.699L287.074 44.1547H295.939C296.749 44.1547 297.439 44.3497 298.009 44.7397C298.579 45.1297 298.954 45.6247 299.134 46.2247L305.749 70.8847C306.079 72.2347 306.364 73.5547 306.604 74.8447C306.874 76.1347 307.099 77.4247 307.279 78.7147C307.609 77.4247 307.954 76.1347 308.314 74.8447C308.704 73.5547 309.109 72.2347 309.529 70.8847L317.179 46.1347C317.359 45.5347 317.704 45.0397 318.214 44.6497C318.754 44.2597 319.399 44.0647 320.149 44.0647H325.054C325.834 44.0647 326.494 44.2597 327.034 44.6497C327.604 45.0397 327.979 45.5347 328.159 46.1347L335.584 70.8847C335.974 72.2347 336.334 73.5697 336.664 74.8897C337.024 76.1797 337.369 77.4697 337.699 78.7597C338.089 76.2097 338.644 73.5847 339.364 70.8847L346.159 46.2247C346.369 45.6247 346.744 45.1297 347.284 44.7397C347.824 44.3497 348.469 44.1547 349.219 44.1547H357.679ZM429.925 44.1547L415.255 90.3247H406.345C405.325 90.3247 404.62 89.6647 404.23 88.3447L395.95 61.6597C395.68 60.7597 395.425 59.8747 395.185 59.0047C394.975 58.1047 394.795 57.2047 394.645 56.3047C394.465 57.2047 394.255 58.1197 394.015 59.0497C393.805 59.9497 393.565 60.8497 393.295 61.7497L384.88 88.3447C384.52 89.6647 383.725 90.3247 382.495 90.3247H373.945L359.32 44.1547H368.185C368.995 44.1547 369.685 44.3497 370.255 44.7397C370.825 45.1297 371.2 45.6247 371.38 46.2247L377.995 70.8847C378.325 72.2347 378.61 73.5547 378.85 74.8447C379.12 76.1347 379.345 77.4247 379.525 78.7147C379.855 77.4247 380.2 76.1347 380.56 74.8447C380.95 73.5547 381.355 72.2347 381.775 70.8847L389.425 46.1347C389.605 45.5347 389.95 45.0397 390.46 44.6497C391 44.2597 391.645 44.0647 392.395 44.0647H397.3C398.08 44.0647 398.74 44.2597 399.28 44.6497C399.85 45.0397 400.225 45.5347 400.405 46.1347L407.83 70.8847C408.22 72.2347 408.58 73.5697 408.91 74.8897C409.27 76.1797 409.615 77.4697 409.945 78.7597C410.335 76.2097 410.89 73.5847 411.61 70.8847L418.405 46.2247C418.615 45.6247 418.99 45.1297 419.53 44.7397C420.07 44.3497 420.715 44.1547 421.465 44.1547H429.925ZM465.2 61.9297C465.2 60.4897 464.99 59.1397 464.57 57.8797C464.18 56.5897 463.58 55.4647 462.77 54.5047C461.96 53.5447 460.925 52.7947 459.665 52.2547C458.435 51.6847 456.995 51.3997 455.345 51.3997C452.135 51.3997 449.6 52.3147 447.74 54.1447C445.91 55.9747 444.74 58.5697 444.23 61.9297H465.2ZM444.005 68.6347C444.185 71.0047 444.605 73.0597 445.265 74.7997C445.925 76.5097 446.795 77.9347 447.875 79.0747C448.955 80.1847 450.23 81.0247 451.7 81.5947C453.2 82.1347 454.85 82.4047 456.65 82.4047C458.45 82.4047 459.995 82.1947 461.285 81.7747C462.605 81.3547 463.745 80.8897 464.705 80.3797C465.695 79.8697 466.55 79.4047 467.27 78.9847C468.02 78.5647 468.74 78.3547 469.43 78.3547C470.36 78.3547 471.05 78.6997 471.5 79.3897L474.695 83.4397C473.465 84.8797 472.085 86.0947 470.555 87.0847C469.025 88.0447 467.42 88.8247 465.74 89.4247C464.09 89.9947 462.395 90.3997 460.655 90.6397C458.945 90.8797 457.28 90.9997 455.66 90.9997C452.45 90.9997 449.465 90.4747 446.705 89.4247C443.945 88.3447 441.545 86.7697 439.505 84.6997C437.465 82.5997 435.86 80.0197 434.69 76.9597C433.52 73.8697 432.935 70.2997 432.935 66.2497C432.935 63.0997 433.445 60.1447 434.465 57.3847C435.485 54.5947 436.94 52.1797 438.83 50.1397C440.75 48.0697 443.075 46.4347 445.805 45.2347C448.565 44.0347 451.67 43.4347 455.12 43.4347C458.03 43.4347 460.715 43.8997 463.175 44.8297C465.635 45.7597 467.75 47.1247 469.52 48.9247C471.29 50.6947 472.67 52.8847 473.66 55.4947C474.68 58.0747 475.19 61.0297 475.19 64.3597C475.19 66.0397 475.01 67.1797 474.65 67.7797C474.29 68.3497 473.6 68.6347 472.58 68.6347H444.005ZM511.701 53.1547C511.401 53.6347 511.086 53.9797 510.756 54.1897C510.426 54.3697 510.006 54.4597 509.496 54.4597C508.956 54.4597 508.371 54.3097 507.741 54.0097C507.141 53.7097 506.436 53.3797 505.626 53.0197C504.816 52.6297 503.886 52.2847 502.836 51.9847C501.816 51.6847 500.601 51.5347 499.191 51.5347C497.001 51.5347 495.276 51.9997 494.016 52.9297C492.786 53.8597 492.171 55.0747 492.171 56.5747C492.171 57.5647 492.486 58.4047 493.116 59.0947C493.776 59.7547 494.631 60.3397 495.681 60.8497C496.761 61.3597 497.976 61.8247 499.326 62.2447C500.676 62.6347 502.041 63.0697 503.421 63.5497C504.831 64.0297 506.211 64.5847 507.561 65.2147C508.911 65.8147 510.111 66.5947 511.161 67.5547C512.241 68.4847 513.096 69.6097 513.726 70.9297C514.386 72.2497 514.716 73.8397 514.716 75.6997C514.716 77.9197 514.311 79.9747 513.501 81.8647C512.721 83.7247 511.551 85.3447 509.991 86.7247C508.431 88.0747 506.496 89.1397 504.186 89.9197C501.906 90.6697 499.266 91.0447 496.266 91.0447C494.676 91.0447 493.116 90.8947 491.586 90.5947C490.086 90.3247 488.631 89.9347 487.221 89.4247C485.841 88.9147 484.551 88.3147 483.351 87.6247C482.181 86.9347 481.146 86.1847 480.246 85.3747L482.811 81.1447C483.141 80.6347 483.531 80.2447 483.981 79.9747C484.431 79.7047 485.001 79.5697 485.691 79.5697C486.381 79.5697 487.026 79.7647 487.626 80.1547C488.256 80.5447 488.976 80.9647 489.786 81.4147C490.596 81.8647 491.541 82.2847 492.621 82.6747C493.731 83.0647 495.126 83.2597 496.806 83.2597C498.126 83.2597 499.251 83.1097 500.181 82.8097C501.141 82.4797 501.921 82.0597 502.521 81.5497C503.151 81.0397 503.601 80.4547 503.871 79.7947C504.171 79.1047 504.321 78.3997 504.321 77.6797C504.321 76.5997 503.991 75.7147 503.331 75.0247C502.701 74.3347 501.846 73.7347 500.766 73.2247C499.716 72.7147 498.501 72.2647 497.121 71.8747C495.771 71.4547 494.376 71.0047 492.936 70.5247C491.526 70.0447 490.131 69.4897 488.751 68.8597C487.401 68.1997 486.186 67.3747 485.106 66.3847C484.056 65.3947 483.201 64.1797 482.541 62.7397C481.911 61.2997 481.596 59.5597 481.596 57.5197C481.596 55.6297 481.971 53.8297 482.721 52.1197C483.471 50.4097 484.566 48.9247 486.006 47.6647C487.476 46.3747 489.291 45.3547 491.451 44.6047C493.641 43.8247 496.161 43.4347 499.011 43.4347C502.191 43.4347 505.086 43.9597 507.696 45.0097C510.306 46.0597 512.481 47.4397 514.221 49.1497L511.701 53.1547ZM543.512 43.4347C546.932 43.4347 550.037 43.9897 552.827 45.0997C555.647 46.2097 558.047 47.7847 560.027 49.8247C562.037 51.8647 563.582 54.3547 564.662 57.2947C565.742 60.2347 566.282 63.5197 566.282 67.1497C566.282 70.8097 565.742 74.1097 564.662 77.0497C563.582 79.9897 562.037 82.4947 560.027 84.5647C558.047 86.6347 555.647 88.2247 552.827 89.3347C550.037 90.4447 546.932 90.9997 543.512 90.9997C540.062 90.9997 536.927 90.4447 534.107 89.3347C531.287 88.2247 528.872 86.6347 526.862 84.5647C524.882 82.4947 523.337 79.9897 522.227 77.0497C521.147 74.1097 520.607 70.8097 520.607 67.1497C520.607 63.5197 521.147 60.2347 522.227 57.2947C523.337 54.3547 524.882 51.8647 526.862 49.8247C528.872 47.7847 531.287 46.2097 534.107 45.0997C536.927 43.9897 540.062 43.4347 543.512 43.4347ZM543.512 82.4497C547.352 82.4497 550.187 81.1597 552.017 78.5797C553.877 75.9997 554.807 72.2197 554.807 67.2397C554.807 62.2597 553.877 58.4647 552.017 55.8547C550.187 53.2447 547.352 51.9397 543.512 51.9397C539.612 51.9397 536.717 53.2597 534.827 55.8997C532.967 58.5097 532.037 62.2897 532.037 67.2397C532.037 72.1897 532.967 75.9697 534.827 78.5797C536.717 81.1597 539.612 82.4497 543.512 82.4497ZM574.761 90.3247V44.1547H581.556C582.996 44.1547 583.941 44.8297 584.391 46.1797L585.111 49.5997C585.921 48.6997 586.761 47.8747 587.631 47.1247C588.531 46.3747 589.476 45.7297 590.466 45.1897C591.486 44.6497 592.566 44.2297 593.706 43.9297C594.876 43.5997 596.151 43.4347 597.531 43.4347C600.441 43.4347 602.826 44.2297 604.686 45.8197C606.576 47.3797 607.986 49.4647 608.916 52.0747C609.636 50.5447 610.536 49.2397 611.616 48.1597C612.696 47.0497 613.881 46.1497 615.171 45.4597C616.461 44.7697 617.826 44.2597 619.266 43.9297C620.736 43.5997 622.206 43.4347 623.676 43.4347C626.226 43.4347 628.491 43.8247 630.471 44.6047C632.451 45.3847 634.116 46.5247 635.466 48.0247C636.816 49.5247 637.836 51.3547 638.526 53.5147C639.246 55.6747 639.606 58.1497 639.606 60.9397V90.3247H628.491V60.9397C628.491 57.9997 627.846 55.7947 626.556 54.3247C625.266 52.8247 623.376 52.0747 620.886 52.0747C619.746 52.0747 618.681 52.2697 617.691 52.6597C616.731 53.0497 615.876 53.6197 615.126 54.3697C614.406 55.0897 613.836 56.0047 613.416 57.1147C612.996 58.2247 612.786 59.4997 612.786 60.9397V90.3247H601.626V60.9397C601.626 57.8497 600.996 55.5997 599.736 54.1897C598.506 52.7797 596.691 52.0747 594.291 52.0747C592.671 52.0747 591.156 52.4797 589.746 53.2897C588.366 54.0697 587.076 55.1497 585.876 56.5297V90.3247H574.761ZM679.917 61.9297C679.917 60.4897 679.707 59.1397 679.287 57.8797C678.897 56.5897 678.297 55.4647 677.487 54.5047C676.677 53.5447 675.642 52.7947 674.382 52.2547C673.152 51.6847 671.712 51.3997 670.062 51.3997C666.852 51.3997 664.317 52.3147 662.457 54.1447C660.627 55.9747 659.457 58.5697 658.947 61.9297H679.917ZM658.722 68.6347C658.902 71.0047 659.322 73.0597 659.982 74.7997C660.642 76.5097 661.512 77.9347 662.592 79.0747C663.672 80.1847 664.947 81.0247 666.417 81.5947C667.917 82.1347 669.567 82.4047 671.367 82.4047C673.167 82.4047 674.712 82.1947 676.002 81.7747C677.322 81.3547 678.462 80.8897 679.422 80.3797C680.412 79.8697 681.267 79.4047 681.987 78.9847C682.737 78.5647 683.457 78.3547 684.147 78.3547C685.077 78.3547 685.767 78.6997 686.217 79.3897L689.412 83.4397C688.182 84.8797 686.802 86.0947 685.272 87.0847C683.742 88.0447 682.137 88.8247 680.457 89.4247C678.807 89.9947 677.112 90.3997 675.372 90.6397C673.662 90.8797 671.997 90.9997 670.377 90.9997C667.167 90.9997 664.182 90.4747 661.422 89.4247C658.662 88.3447 656.262 86.7697 654.222 84.6997C652.182 82.5997 650.577 80.0197 649.407 76.9597C648.237 73.8697 647.652 70.2997 647.652 66.2497C647.652 63.0997 648.162 60.1447 649.182 57.3847C650.202 54.5947 651.657 52.1797 653.547 50.1397C655.467 48.0697 657.792 46.4347 660.522 45.2347C663.282 44.0347 666.387 43.4347 669.837 43.4347C672.747 43.4347 675.432 43.8997 677.892 44.8297C680.352 45.7597 682.467 47.1247 684.237 48.9247C686.007 50.6947 687.387 52.8847 688.377 55.4947C689.397 58.0747 689.907 61.0297 689.907 64.3597C689.907 66.0397 689.727 67.1797 689.367 67.7797C689.007 68.3497 688.317 68.6347 687.297 68.6347H658.722Z" fill="white"/>
<path d="M262.33 133.023C262.17 133.303 261.94 133.443 261.64 133.443C261.42 133.443 261.14 133.323 260.8 133.083C260.46 132.823 260 132.543 259.42 132.243C258.86 131.923 258.16 131.643 257.32 131.403C256.48 131.143 255.46 131.013 254.26 131.013C253.18 131.013 252.19 131.173 251.29 131.493C250.41 131.793 249.65 132.203 249.01 132.723C248.39 133.243 247.91 133.853 247.57 134.553C247.23 135.233 247.06 135.953 247.06 136.713C247.06 137.653 247.3 138.433 247.78 139.053C248.26 139.673 248.88 140.203 249.64 140.643C250.42 141.083 251.31 141.463 252.31 141.783C253.31 142.103 254.32 142.423 255.34 142.743C256.38 143.063 257.4 143.423 258.4 143.823C259.4 144.203 260.28 144.683 261.04 145.263C261.82 145.843 262.45 146.553 262.93 147.393C263.41 148.233 263.65 149.253 263.65 150.453C263.65 151.753 263.42 152.963 262.96 154.083C262.5 155.203 261.82 156.173 260.92 156.993C260.04 157.813 258.95 158.463 257.65 158.943C256.35 159.423 254.86 159.663 253.18 159.663C251.08 159.663 249.27 159.333 247.75 158.673C246.23 157.993 244.87 157.113 243.67 156.033L244.33 155.013C244.43 154.853 244.54 154.733 244.66 154.653C244.8 154.573 244.98 154.533 245.2 154.533C245.46 154.533 245.77 154.693 246.13 155.013C246.51 155.333 247.01 155.683 247.63 156.063C248.25 156.423 249.01 156.763 249.91 157.083C250.83 157.403 251.96 157.563 253.3 157.563C254.56 157.563 255.67 157.393 256.63 157.053C257.59 156.693 258.39 156.213 259.03 155.613C259.67 155.013 260.15 154.313 260.47 153.513C260.81 152.693 260.98 151.833 260.98 150.933C260.98 149.933 260.74 149.103 260.26 148.443C259.78 147.783 259.15 147.223 258.37 146.763C257.59 146.303 256.7 145.913 255.7 145.593C254.72 145.273 253.71 144.953 252.67 144.633C251.63 144.313 250.61 143.963 249.61 143.583C248.63 143.203 247.75 142.723 246.97 142.143C246.19 141.563 245.56 140.863 245.08 140.043C244.6 139.203 244.36 138.163 244.36 136.923C244.36 135.863 244.59 134.843 245.05 133.863C245.51 132.883 246.16 132.023 247 131.283C247.86 130.543 248.9 129.953 250.12 129.513C251.34 129.073 252.71 128.853 254.23 128.853C256.05 128.853 257.66 129.113 259.06 129.633C260.48 130.153 261.77 130.953 262.93 132.033L262.33 133.023ZM292.348 141.243C292.348 139.643 292.118 138.213 291.658 136.953C291.218 135.673 290.588 134.593 289.768 133.713C288.948 132.833 287.968 132.163 286.828 131.703C285.708 131.223 284.468 130.983 283.108 130.983C281.568 130.983 280.188 131.223 278.968 131.703C277.748 132.183 276.688 132.873 275.788 133.773C274.908 134.673 274.198 135.753 273.658 137.013C273.118 138.273 272.758 139.683 272.578 141.243H292.348ZM272.428 143.073V143.643C272.428 145.883 272.688 147.853 273.208 149.553C273.728 151.253 274.468 152.683 275.428 153.843C276.388 154.983 277.548 155.843 278.908 156.423C280.268 157.003 281.788 157.293 283.468 157.293C284.968 157.293 286.268 157.133 287.368 156.813C288.468 156.473 289.388 156.103 290.128 155.703C290.888 155.283 291.488 154.913 291.928 154.593C292.368 154.253 292.688 154.083 292.888 154.083C293.148 154.083 293.348 154.183 293.488 154.383L294.268 155.343C293.788 155.943 293.148 156.503 292.348 157.023C291.568 157.543 290.688 157.993 289.708 158.373C288.748 158.733 287.708 159.023 286.588 159.243C285.488 159.463 284.378 159.573 283.258 159.573C281.218 159.573 279.358 159.223 277.678 158.523C275.998 157.803 274.558 156.763 273.358 155.403C272.158 154.043 271.228 152.383 270.568 150.423C269.928 148.443 269.608 146.183 269.608 143.643C269.608 141.503 269.908 139.533 270.508 137.733C271.128 135.913 272.008 134.353 273.148 133.053C274.308 131.733 275.718 130.703 277.378 129.963C279.058 129.223 280.958 128.853 283.078 128.853C284.758 128.853 286.318 129.143 287.758 129.723C289.198 130.303 290.448 131.153 291.508 132.273C292.568 133.373 293.398 134.733 293.998 136.353C294.618 137.973 294.928 139.833 294.928 141.933C294.928 142.373 294.868 142.673 294.748 142.833C294.628 142.993 294.428 143.073 294.148 143.073H272.428ZM305.847 115.533V159.183H302.967V115.533H305.847ZM339.13 134.373C340.51 132.693 342.08 131.353 343.84 130.353C345.62 129.353 347.61 128.853 349.81 128.853C351.45 128.853 352.89 129.113 354.13 129.633C355.39 130.153 356.43 130.903 357.25 131.883C358.07 132.863 358.69 134.043 359.11 135.423C359.53 136.803 359.74 138.363 359.74 140.103V159.183H356.86V140.103C356.86 137.303 356.22 135.113 354.94 133.533C353.66 131.933 351.71 131.133 349.09 131.133C347.15 131.133 345.33 131.633 343.63 132.633C341.95 133.613 340.45 134.983 339.13 136.743V159.183H336.25V117.603C335.31 117.423 334.33 117.273 333.31 117.153C332.29 117.033 331.34 116.973 330.46 116.973C328.66 116.973 327.12 117.233 325.84 117.753C324.58 118.253 323.55 118.963 322.75 119.883C321.97 120.803 321.4 121.893 321.04 123.153C320.68 124.393 320.5 125.763 320.5 127.263V130.263H330.19V132.393H320.59V159.183H317.71V132.453L313.51 132.183C312.95 132.123 312.67 131.873 312.67 131.433V130.263H317.71V127.263C317.71 125.483 317.94 123.843 318.4 122.343C318.88 120.843 319.63 119.553 320.65 118.473C321.69 117.373 323.02 116.523 324.64 115.923C326.28 115.303 328.26 114.993 330.58 114.993C331.96 114.993 333.28 115.083 334.54 115.263C335.82 115.423 337.19 115.513 338.65 115.533H339.13V134.373ZM381.08 128.853C383.22 128.853 385.13 129.223 386.81 129.963C388.51 130.683 389.94 131.713 391.1 133.053C392.26 134.393 393.14 136.013 393.74 137.913C394.36 139.793 394.67 141.903 394.67 144.243C394.67 146.583 394.36 148.693 393.74 150.573C393.14 152.453 392.26 154.063 391.1 155.403C389.94 156.743 388.51 157.773 386.81 158.493C385.13 159.213 383.22 159.573 381.08 159.573C378.94 159.573 377.02 159.213 375.32 158.493C373.64 157.773 372.21 156.743 371.03 155.403C369.87 154.063 368.98 152.453 368.36 150.573C367.76 148.693 367.46 146.583 367.46 144.243C367.46 141.903 367.76 139.793 368.36 137.913C368.98 136.013 369.87 134.393 371.03 133.053C372.21 131.713 373.64 130.683 375.32 129.963C377.02 129.223 378.94 128.853 381.08 128.853ZM381.08 157.323C382.86 157.323 384.41 157.023 385.73 156.423C387.07 155.803 388.18 154.923 389.06 153.783C389.96 152.643 390.63 151.273 391.07 149.673C391.51 148.053 391.73 146.243 391.73 144.243C391.73 142.263 391.51 140.463 391.07 138.843C390.63 137.223 389.96 135.843 389.06 134.703C388.18 133.543 387.07 132.653 385.73 132.033C384.41 131.413 382.86 131.103 381.08 131.103C379.3 131.103 377.74 131.413 376.4 132.033C375.08 132.653 373.97 133.543 373.07 134.703C372.19 135.843 371.52 137.223 371.06 138.843C370.62 140.463 370.4 142.263 370.4 144.243C370.4 146.243 370.62 148.053 371.06 149.673C371.52 151.273 372.19 152.643 373.07 153.783C373.97 154.923 375.08 155.803 376.4 156.423C377.74 157.023 379.3 157.323 381.08 157.323ZM419.127 133.023C418.967 133.303 418.737 133.443 418.437 133.443C418.217 133.443 417.937 133.323 417.597 133.083C417.257 132.823 416.797 132.543 416.217 132.243C415.657 131.923 414.957 131.643 414.117 131.403C413.277 131.143 412.257 131.013 411.057 131.013C409.977 131.013 408.987 131.173 408.087 131.493C407.207 131.793 406.447 132.203 405.807 132.723C405.187 133.243 404.707 133.853 404.367 134.553C404.027 135.233 403.857 135.953 403.857 136.713C403.857 137.653 404.097 138.433 404.577 139.053C405.057 139.673 405.677 140.203 406.437 140.643C407.217 141.083 408.107 141.463 409.107 141.783C410.107 142.103 411.117 142.423 412.137 142.743C413.177 143.063 414.197 143.423 415.197 143.823C416.197 144.203 417.077 144.683 417.837 145.263C418.617 145.843 419.247 146.553 419.727 147.393C420.207 148.233 420.447 149.253 420.447 150.453C420.447 151.753 420.217 152.963 419.757 154.083C419.297 155.203 418.617 156.173 417.717 156.993C416.837 157.813 415.747 158.463 414.447 158.943C413.147 159.423 411.657 159.663 409.977 159.663C407.877 159.663 406.067 159.333 404.547 158.673C403.027 157.993 401.667 157.113 400.467 156.033L401.127 155.013C401.227 154.853 401.337 154.733 401.457 154.653C401.597 154.573 401.777 154.533 401.997 154.533C402.257 154.533 402.567 154.693 402.927 155.013C403.307 155.333 403.807 155.683 404.427 156.063C405.047 156.423 405.807 156.763 406.707 157.083C407.627 157.403 408.757 157.563 410.097 157.563C411.357 157.563 412.467 157.393 413.427 157.053C414.387 156.693 415.187 156.213 415.827 155.613C416.467 155.013 416.947 154.313 417.267 153.513C417.607 152.693 417.777 151.833 417.777 150.933C417.777 149.933 417.537 149.103 417.057 148.443C416.577 147.783 415.947 147.223 415.167 146.763C414.387 146.303 413.497 145.913 412.497 145.593C411.517 145.273 410.507 144.953 409.467 144.633C408.427 144.313 407.407 143.963 406.407 143.583C405.427 143.203 404.547 142.723 403.767 142.143C402.987 141.563 402.357 140.863 401.877 140.043C401.397 139.203 401.157 138.163 401.157 136.923C401.157 135.863 401.387 134.843 401.847 133.863C402.307 132.883 402.957 132.023 403.797 131.283C404.657 130.543 405.697 129.953 406.917 129.513C408.137 129.073 409.507 128.853 411.027 128.853C412.847 128.853 414.457 129.113 415.857 129.633C417.277 130.153 418.567 130.953 419.727 132.033L419.127 133.023ZM436.365 159.663C434.345 159.663 432.765 159.103 431.625 157.983C430.505 156.863 429.945 155.133 429.945 152.793V132.393H425.655C425.435 132.393 425.255 132.333 425.115 132.213C424.975 132.093 424.905 131.923 424.905 131.703V130.593L430.005 130.233L430.725 119.553C430.765 119.373 430.845 119.213 430.965 119.073C431.085 118.933 431.255 118.863 431.475 118.863H432.825V130.263H442.245V132.393H432.825V152.643C432.825 153.463 432.925 154.173 433.125 154.773C433.345 155.353 433.635 155.833 433.995 156.213C434.375 156.593 434.815 156.873 435.315 157.053C435.815 157.233 436.355 157.323 436.935 157.323C437.655 157.323 438.275 157.223 438.795 157.023C439.315 156.803 439.765 156.573 440.145 156.333C440.525 156.073 440.835 155.843 441.075 155.643C441.315 155.423 441.505 155.313 441.645 155.313C441.805 155.313 441.965 155.413 442.125 155.613L442.905 156.873C442.145 157.713 441.175 158.393 439.995 158.913C438.835 159.413 437.625 159.663 436.365 159.663ZM469.594 141.243C469.594 139.643 469.364 138.213 468.904 136.953C468.464 135.673 467.834 134.593 467.014 133.713C466.194 132.833 465.214 132.163 464.074 131.703C462.954 131.223 461.714 130.983 460.354 130.983C458.814 130.983 457.434 131.223 456.214 131.703C454.994 132.183 453.934 132.873 453.034 133.773C452.154 134.673 451.444 135.753 450.904 137.013C450.364 138.273 450.004 139.683 449.824 141.243H469.594ZM449.674 143.073V143.643C449.674 145.883 449.934 147.853 450.454 149.553C450.974 151.253 451.714 152.683 452.674 153.843C453.634 154.983 454.794 155.843 456.154 156.423C457.514 157.003 459.034 157.293 460.714 157.293C462.214 157.293 463.514 157.133 464.614 156.813C465.714 156.473 466.634 156.103 467.374 155.703C468.134 155.283 468.734 154.913 469.174 154.593C469.614 154.253 469.934 154.083 470.134 154.083C470.394 154.083 470.594 154.183 470.734 154.383L471.514 155.343C471.034 155.943 470.394 156.503 469.594 157.023C468.814 157.543 467.934 157.993 466.954 158.373C465.994 158.733 464.954 159.023 463.834 159.243C462.734 159.463 461.624 159.573 460.504 159.573C458.464 159.573 456.604 159.223 454.924 158.523C453.244 157.803 451.804 156.763 450.604 155.403C449.404 154.043 448.474 152.383 447.814 150.423C447.174 148.443 446.854 146.183 446.854 143.643C446.854 141.503 447.154 139.533 447.754 137.733C448.374 135.913 449.254 134.353 450.394 133.053C451.554 131.733 452.964 130.703 454.624 129.963C456.304 129.223 458.204 128.853 460.324 128.853C462.004 128.853 463.564 129.143 465.004 129.723C466.444 130.303 467.694 131.153 468.754 132.273C469.814 133.373 470.644 134.733 471.244 136.353C471.864 137.973 472.174 139.833 472.174 141.933C472.174 142.373 472.114 142.673 471.994 142.833C471.874 142.993 471.674 143.073 471.394 143.073H449.674ZM500.313 135.753C499.173 134.033 497.903 132.823 496.503 132.123C495.123 131.423 493.543 131.073 491.763 131.073C490.003 131.073 488.463 131.393 487.143 132.033C485.823 132.673 484.713 133.583 483.813 134.763C482.933 135.923 482.263 137.323 481.803 138.963C481.363 140.583 481.143 142.373 481.143 144.333C481.143 148.773 481.953 152.043 483.573 154.143C485.213 156.223 487.573 157.263 490.653 157.263C492.613 157.263 494.403 156.753 496.023 155.733C497.643 154.713 499.073 153.283 500.313 151.443V135.753ZM503.163 115.533V159.183H501.603C501.083 159.183 500.783 158.923 500.703 158.403L500.403 153.693C499.083 155.493 497.543 156.923 495.783 157.983C494.023 159.043 492.043 159.573 489.843 159.573C486.163 159.573 483.303 158.303 481.263 155.763C479.223 153.223 478.203 149.413 478.203 144.333C478.203 142.153 478.483 140.123 479.043 138.243C479.623 136.343 480.463 134.703 481.563 133.323C482.663 131.923 484.013 130.823 485.613 130.023C487.233 129.223 489.093 128.823 491.193 128.823C493.213 128.823 494.963 129.193 496.443 129.933C497.923 130.673 499.213 131.773 500.313 133.233V115.533H503.163Z" fill="#D1D5DB"/>
<defs>
<clipPath id="clip0_19_44">
<rect width="190.649" height="190.649" fill="white"/>
</clipPath>
</defs>
</svg>
